
        <svg xmlns="http://www.w3.org/2000/svg" xmlns:xlink="http://www.w3.org/1999/xlink" version="1.1" width="2403.811534731075" 
        height="3156.569302326497" viewBox="0 0 2403.811534731075 3156.569302326497">
			
			<g transform="scale(7.828465116324861) translate(10, 10)">
				<defs id="SvgjsDefs2070"></defs><g id="SvgjsG2071" featureKey="pxMwYC-0" transform="matrix(3.0753276917996115,0,0,3.0753276917996115,-9.85418108628582,-18.525774531584403)" fill="#fd7014"><path xmlns="http://www.w3.org/2000/svg" d="M52.094,93.749c0.001,0,11.108-7.41,0.883-22.909c-4.773-7.235-12.596-14.971-11.701-22.63  c-1.015,0.883-1.937,1.859-2.38,2.453c-1.618,2.169-2.791,4.529-3.392,6.964c-0.697,2.823-0.515,5.795,1.102,8.686  c1.501,2.683,4.107,5.103,6.558,7.537c5.868,5.826,11.036,12.018,9.461,18.607C52.541,92.811,52.5,93.478,52.094,93.749z"></path><path xmlns="http://www.w3.org/2000/svg" d="M59.398,79.14c0.001-0.001,17.835-11.897,1.417-36.782C53.152,30.742,40.592,18.321,42.03,6.024  c-1.365,1.194-3.11,2.985-3.821,3.939c-2.598,3.482-4.481,7.271-5.446,11.181c-1.12,4.533-0.827,9.304,1.77,13.946  c2.41,4.308,6.594,8.193,10.53,12.102c9.421,9.355,17.719,19.295,15.19,29.876C60.116,77.635,60.049,78.706,59.398,79.14z"></path></g><g id="SvgjsG2072" featureKey="Vx5QiU-0" transform="matrix(3.3692534989669527,0,0,3.3692534989669527,-2.493245211489355,274.43404922035313)" fill="#393e46"><path d="M16.3 13.04 q0 0.24 -0.04 0.84 q-0.16 1.84 -1.23 3.3 t-2.76 2.28 t-3.65 0.82 q-2.14 0 -3.95 -1.02 t-2.87 -2.76 t-1.06 -3.8 q0 -2.04 1.06 -3.79 t2.87 -2.77 t3.95 -1.02 q2.02 0 3.77 0.95 t2.85 2.57 l-2.72 1.58 q-0.72 -0.98 -1.74 -1.6 t-2.16 -0.62 q-1.28 0 -2.37 0.65 t-1.73 1.73 t-0.64 2.32 t0.64 2.33 t1.73 1.74 t2.37 0.65 q0.92 0 1.82 -0.37 t1.56 -1.01 t0.88 -1.4 l-5.46 0 l0 -2.78 l8.84 0 q0.04 0.8 0.04 1.18 z M23.84 11.87 q-0.86 0.21 -1.58 0.99 t-0.72 2.28 l0 4.86 l-2.98 0 l0 -11 l2.98 0 l0 1.46 q0.74 -0.98 1.81 -1.33 t1.95 -0.33 l0 2.92 q-0.6 -0.06 -1.46 0.15 z M29.88 7.369999999999999 q-0.48 0.47 -1.16 0.47 q-0.7 0 -1.19 -0.47 t-0.49 -1.15 q0 -0.66 0.49 -1.13 t1.19 -0.47 q0.68 0 1.16 0.47 t0.48 1.13 q0 0.68 -0.48 1.15 z M27.22 9.02 l3 0 l0 10.98 l-3 0 l0 -10.98 z M36.68 20 l-3 0 l0 -8.26 l-1.24 0 l0 -2.56 l1.24 0 q0.08 -2.14 1.22 -3.26 t3.16 -1.12 q0.6 0 1.32 0.18 l-0.16 2.42 q-0.38 -0.12 -0.82 -0.12 q-1.08 0 -1.4 0.54 t-0.32 1.36 l1.98 0 l0 2.56 l-1.98 0 l0 8.26 z M43.78 7.369999999999999 q-0.48 0.47 -1.16 0.47 q-0.7 0 -1.19 -0.47 t-0.49 -1.15 q0 -0.66 0.49 -1.13 t1.19 -0.47 q0.68 0 1.16 0.47 t0.48 1.13 q0 0.68 -0.48 1.15 z M41.120000000000005 9.02 l3 0 l0 10.98 l-3 0 l0 -10.98 z M56.290000000000006 10.02 q1.03 1.22 1.03 3.48 l0 6.5 l-3.06 0 l0 -6.5 q0 -2.22 -2.12 -2.22 q-0.82 0 -1.48 0.65 t-0.62 2.25 l0 5.82 l-2.98 0 l0 -11 l2.98 0 l0 0.98 q0.54 -0.54 1.36 -0.86 t1.58 -0.32 q2.28 0 3.31 1.22 z M68.58 18.9 q-0.38 0.52 -1.31 0.93 t-2.03 0.41 q-1.7 0 -2.95 -0.76 t-1.91 -2.07 t-0.66 -2.91 t0.66 -2.91 t1.91 -2.07 t2.95 -0.76 q1.14 0 2.01 0.39 t1.33 0.99 l0 -5.26 l2.96 0 l0 15.12 l-2.96 0 l0 -1.1 z M67.88 12.25 q-0.82 -0.87 -2.2 -0.87 q-1.4 0 -2.21 0.87 t-0.81 2.25 q0 1.34 0.83 2.22 t2.19 0.88 q1.4 0 2.21 -0.83 t0.81 -2.27 q0 -1.38 -0.82 -2.25 z M76.95 19.49 q-1.37 -0.77 -2.17 -2.09 t-0.8 -2.88 q0 -1.54 0.8 -2.86 t2.17 -2.09 t2.99 -0.77 t3 0.77 t2.19 2.09 t0.81 2.86 q0 1.56 -0.81 2.88 t-2.19 2.09 t-3 0.77 t-2.99 -0.77 z M78.42 11.83 q-0.7 0.41 -1.1 1.12 t-0.4 1.57 q0 0.9 0.39 1.61 t1.08 1.12 t1.55 0.41 q0.84 0 1.53 -0.41 t1.09 -1.13 t0.4 -1.6 q0 -0.86 -0.4 -1.57 t-1.09 -1.12 t-1.53 -0.41 q-0.82 0 -1.52 0.41 z"></path></g><g id="SvgjsG2073" featureKey="aAUSXE-0" transform="matrix(1.8181037828761164,0,0,1.8181037828761164,60.90913877060166,346.3093736229472)" fill="#fd7014"><path d="M12.58 6.779999999999999 l-4.42 0 l0 13.22 l-3.14 0 l0 -13.22 l-4.42 0 l0 -2.76 l11.98 0 l0 2.76 z M41.660000000000004 12 q0 1.72 -0.67 3.24 t-1.83 2.64 t-2.7 1.77 t-3.28 0.65 t-3.29 -0.65 t-2.71 -1.77 t-1.83 -2.63 t-0.67 -3.25 t0.67 -3.26 t1.83 -2.64 t2.71 -1.76 t3.29 -0.64 t3.28 0.64 t2.7 1.77 t1.83 2.64 t0.67 3.25 z M38.540000000000006 12 q0 -1.1 -0.42 -2.07 t-1.15 -1.7 t-1.71 -1.16 t-2.08 -0.43 q-1.12 0 -2.1 0.43 t-1.71 1.16 t-1.15 1.7 t-0.42 2.07 q0 1.08 0.42 2.06 t1.15 1.71 t1.71 1.16 t2.1 0.43 q1.1 0 2.08 -0.43 t1.71 -1.16 t1.15 -1.71 t0.42 -2.06 z M68.12 4.02 l-6.52 9.44 l0 6.56 l-3.14 0 l0 -6.6 l-6.18 -9.4 l3.6 0 l4.16 6.72 l4.34 -6.72 l3.74 0 z M91.00000000000001 15.8 q0 0.9 -0.39 1.71 t-1.09 1.43 t-1.66 0.99 t-2.12 0.37 q-1.04 0 -1.87 -0.12 t-1.56 -0.38 t-1.4 -0.67 t-1.39 -0.99 l2.2 -2.22 q0.96 0.8 1.88 1.13 t2 0.33 q0.44 0 0.83 -0.13 t0.68 -0.35 t0.46 -0.52 t0.17 -0.66 q0 -0.38 -0.14 -0.68 t-0.5 -0.58 t-1 -0.57 t-1.64 -0.65 q-0.88 -0.32 -1.69 -0.73 t-1.42 -0.99 t-0.98 -1.36 t-0.37 -1.84 q0 -1.02 0.41 -1.88 t1.12 -1.47 t1.66 -0.95 t2.05 -0.34 q1.84 0 3.1 0.48 t2.24 1.4 l-2.16 2.18 q-0.6 -0.58 -1.34 -0.89 t-1.74 -0.31 q-0.46 0 -0.85 0.14 t-0.67 0.37 t-0.45 0.54 t-0.17 0.65 q0 0.38 0.16 0.69 t0.54 0.6 t1.01 0.58 t1.57 0.63 q1.2 0.42 2.06 0.92 t1.4 1.1 t0.8 1.35 t0.26 1.69 z"></path></g>
			</g>
		</svg>
	